<svg xmlns="http://www.w3.org/2000/svg" viewBox="0 0 102 102"><defs><style>.cls-1{fill:#fff;stroke:#000;stroke-miterlimit:10;stroke-width:2px;}.cls-2{font-size:14px;font-family:arial;}</style></defs><title>high school</title><g id="Layer_2" data-name="Layer 2"><g id="high_school" data-name="high school"><rect class="cls-1" x="1" y="1" width="100" height="100" rx="12"/><path d="M77.59,65.12V38A2.57,2.57,0,0,0,75,35.38H62.83V28a1.92,1.92,0,0,0-1-1.68l-9.9-5.53-.17-.08V17.55H57.1a.76.76,0,0,0,.77-.77V12.89a.76.76,0,0,0-.77-.77H51.77v-.35a.77.77,0,0,0-1.54,0V20.7l-.17.08-9.9,5.53a1.92,1.92,0,0,0-1,1.68v7.39H27A2.57,2.57,0,0,0,24.41,38V65.12a3.14,3.14,0,0,0,1.3,6H76.29a3.14,3.14,0,0,0,1.3-6ZM67.66,44.33a1.49,1.49,0,0,1,1.5-1.49H72a1.49,1.49,0,0,1,1.49,1.49v2.8A1.49,1.49,0,0,1,72,48.62h-2.8a1.5,1.5,0,0,1-1.5-1.49v-2.8Zm0,9a1.5,1.5,0,0,1,1.5-1.5H72a1.5,1.5,0,0,1,1.49,1.5v2.8A1.49,1.49,0,0,1,72,57.61h-2.8a1.5,1.5,0,0,1-1.5-1.49v-2.8Zm-9-9a1.49,1.49,0,0,1,1.49-1.49H63a1.49,1.49,0,0,1,1.49,1.49v2.8A1.49,1.49,0,0,1,63,48.62h-2.8a1.49,1.49,0,0,1-1.49-1.49Zm0,9a1.5,1.5,0,0,1,1.49-1.5H63a1.5,1.5,0,0,1,1.49,1.5v2.8A1.49,1.49,0,0,1,63,57.61h-2.8a1.49,1.49,0,0,1-1.49-1.49ZM51,28a4.24,4.24,0,1,1-4.24,4.24A4.24,4.24,0,0,1,51,28ZM46.76,52.32a1.5,1.5,0,0,1,1.49-1.5h5.5a1.5,1.5,0,0,1,1.49,1.5V64.1a1.54,1.54,0,0,1-.19.74H47a1.44,1.44,0,0,1-.2-.74V52.32Zm-9.22-8A1.49,1.49,0,0,1,39,42.84h2.8a1.49,1.49,0,0,1,1.49,1.49v2.8a1.49,1.49,0,0,1-1.49,1.49H39a1.49,1.49,0,0,1-1.49-1.49Zm0,9A1.5,1.5,0,0,1,39,51.82h2.8a1.5,1.5,0,0,1,1.49,1.5v2.8a1.49,1.49,0,0,1-1.49,1.49H39a1.49,1.49,0,0,1-1.49-1.49Zm-9-9A1.49,1.49,0,0,1,30,42.84h2.8a1.49,1.49,0,0,1,1.5,1.49v2.8a1.5,1.5,0,0,1-1.5,1.49H30a1.49,1.49,0,0,1-1.49-1.49v-2.8Zm0,9A1.5,1.5,0,0,1,30,51.82h2.8a1.5,1.5,0,0,1,1.5,1.5v2.8a1.5,1.5,0,0,1-1.5,1.49H30a1.49,1.49,0,0,1-1.49-1.49v-2.8Z"/><text class="cls-2" transform="translate(9.29 91.5)">High School</text></g></g></svg>