<svg xmlns="http://www.w3.org/2000/svg" viewBox="0 0 102 102"><defs><style>.cls-1{fill:#fff;stroke:#000;stroke-miterlimit:10;stroke-width:2px;}.cls-2{font-size:14px;font-family:MyriadPro-Regular, Myriad Pro;}.cls-3{letter-spacing:0.01em;}</style></defs><title>mail</title><g id="Layer_2" data-name="Layer 2"><g id="mail"><rect class="cls-1" x="1" y="1" width="100" height="100" rx="12"/><text class="cls-2" transform="translate(38.67 91.5)"><tspan class="cls-3">M</tspan><tspan x="11.34" y="0">ail</tspan></text><path d="M22.2,30.23l8.15,5.66q6.81,4.72,10.43,7.26l1.69,1.22c.86.62,1.57,1.12,2.14,1.51s1.26.81,2.07,1.29A11.56,11.56,0,0,0,49,48.24a6.32,6.32,0,0,0,2,.36H51a6.32,6.32,0,0,0,2-.36,11.56,11.56,0,0,0,2.29-1.07c.81-.48,1.49-.91,2.06-1.29s1.29-.89,2.15-1.51l1.69-1.22L79.84,30.22a18.79,18.79,0,0,0,4.85-4.89,10.5,10.5,0,0,0,2-6A6.42,6.42,0,0,0,80.28,13H21.72A5.67,5.67,0,0,0,17,15a8,8,0,0,0-1.65,5.17,9.29,9.29,0,0,0,2.19,5.43A19.79,19.79,0,0,0,22.2,30.23Z"/><path d="M82.66,34.48q-13,8.84-19.81,13.73c-1.51,1.11-2.73,2-3.68,2.6a23,23,0,0,1-3.75,1.91,11.5,11.5,0,0,1-4.38,1H51a11.5,11.5,0,0,1-4.38-1,23,23,0,0,1-3.75-1.91c-.95-.62-2.17-1.49-3.68-2.6q-5.37-3.94-19.77-13.73a21,21,0,0,1-4-3.46V62.6A6.38,6.38,0,0,0,21.72,69H80.28a6.38,6.38,0,0,0,6.36-6.37V31A21.61,21.61,0,0,1,82.66,34.48Z"/></g></g></svg>