<svg xmlns="http://www.w3.org/2000/svg" viewBox="0 0 102 102"><defs><style>.cls-1{fill:#fff;stroke:#000;stroke-miterlimit:10;stroke-width:2px;}.cls-2{font-size:14px;font-family:MyriadPro-Regular, Myriad Pro;}</style></defs><title>none</title><g id="Layer_2" data-name="Layer 2"><g id="none"><rect class="cls-1" x="1" y="1" width="100" height="100" rx="12"/><text class="cls-2" transform="translate(35.16 91.5)">None</text><g id="Cross"><path d="M51,10.27A30.16,30.16,0,1,0,81.16,40.43,30.16,30.16,0,0,0,51,10.27Zm0,52.78A22.62,22.62,0,1,1,73.62,40.43,22.65,22.65,0,0,1,51,63.05ZM61.26,30.22l0,0a3.59,3.59,0,0,0-5.07,0L51,35.31l-5.14-5.14a3.59,3.59,0,0,0-5.07,0l0,0a3.59,3.59,0,0,0,0,5.07l5.14,5.14-5.14,5.14a3.59,3.59,0,0,0,0,5.07l0,0a3.59,3.59,0,0,0,5.07,0L51,45.55l5.14,5.14a3.59,3.59,0,0,0,5.07,0l0,0a3.59,3.59,0,0,0,0-5.07l-5.14-5.14,5.14-5.15A3.57,3.57,0,0,0,61.26,30.22Z"/></g></g></g></svg>