<svg xmlns="http://www.w3.org/2000/svg" viewBox="0 0 102 102"><defs><style>.cls-1{fill:#fff;stroke:#000;stroke-miterlimit:10;stroke-width:2px;}.cls-2{font-size:14px;font-family:MyriadPro-Regular, Myriad Pro;}.cls-3{letter-spacing:0em;}</style></defs><title>phone</title><g id="Layer_2" data-name="Layer 2"><g id="phone"><rect class="cls-1" x="1" y="1" width="100" height="100" rx="12"/><text class="cls-2" transform="translate(32.19 91.5)"><tspan class="cls-3">P</tspan><tspan x="7.38" y="0">hone</tspan></text><path d="M63.82,10.27H38.18a4.43,4.43,0,0,0-4.43,4.43V66.76a4.43,4.43,0,0,0,4.43,4.43H63.82a4.43,4.43,0,0,0,4.43-4.43V14.7A4.43,4.43,0,0,0,63.82,10.27ZM44.67,13H57.33c.32,0,.58.48.58,1.07s-.26,1.07-.58,1.07H44.67c-.32,0-.57-.48-.57-1.07S44.35,13,44.67,13ZM51,66.81A2.83,2.83,0,1,1,53.83,64,2.83,2.83,0,0,1,51,66.81Zm13.93-9.7H37.07V17.76H64.93Z"/></g></g></svg>