<svg xmlns="http://www.w3.org/2000/svg" viewBox="0 0 102 102"><defs><style>.cls-1{fill:#fff;stroke:#000;stroke-miterlimit:10;stroke-width:2px;}.cls-2{font-size:14px;font-family:MyriadPro-Regular, Myriad Pro;}.cls-3{letter-spacing:-0.07em;}.cls-4{letter-spacing:0em;}.cls-5{letter-spacing:0.02em;}.cls-6{letter-spacing:0.02em;}</style></defs><title>tertiary</title><g id="Layer_2" data-name="Layer 2"><g id="Tertiary"><rect class="cls-1" x="1" y="1" width="100" height="100" rx="12"/><text class="cls-2" transform="translate(28.97 91.5)"><tspan class="cls-3">T</tspan><tspan class="cls-4" x="5.96" y="0">e</tspan><tspan class="cls-5" x="12.98" y="0">r</tspan><tspan x="17.89" y="0">tia</tspan><tspan class="cls-6" x="32.55" y="0">r</tspan><tspan class="cls-4" x="37.48" y="0">y</tspan></text><g id="Layer_5" data-name="Layer 5"><path d="M56.1,54.42a9.41,9.41,0,0,1-9.27,0l-21-12.87S24,40.39,24,43V55.87c0,6.77,12.32,14.06,27.51,14.06S79,62.64,79,55.87V42.3c0-2.11-1.34-1.08-1.34-1.08Z"/><path d="M86.36,31.32c1.61-1,1.61-2.61,0-3.6l-32-16a6.15,6.15,0,0,0-5.86,0l-32,16c-1.61,1-1.61,2.61,0,3.6l32,19.6a6.15,6.15,0,0,0,5.86,0"/><path d="M16.29,59.21a3.74,3.74,0,1,0,3.77,0,.58.58,0,0,1-.35-.48V39.09a1.83,1.83,0,0,0-.38-1.38,18,18,0,0,0-2.1-1.3c-.61-.34-.6.68-.6.68V58.74A.55.55,0,0,1,16.29,59.21Z"/></g></g></g></svg>