<svg xmlns="http://www.w3.org/2000/svg" viewBox="0 0 102 102"><defs><style>.cls-1{fill:#fff;stroke:#000;stroke-miterlimit:10;stroke-width:2px;}.cls-2{font-size:14px;font-family:MyriadPro-Regular, Myriad Pro;}.cls-3{letter-spacing:-0.06em;}.cls-4{letter-spacing:-0.01em;}.cls-5{letter-spacing:0em;}</style></defs><title>tafe</title><g id="Layer_2" data-name="Layer 2"><g id="tafe"><rect class="cls-1" x="1" y="1" width="100" height="100" rx="12"/><text class="cls-2" transform="translate(39.14 91.5)"><tspan class="cls-3">T</tspan><tspan x="6.06" y="0">a</tspan><tspan class="cls-4" x="12.81" y="0">f</tspan><tspan class="cls-5" x="16.72" y="0">e</tspan></text><path d="M77.5,22.13A2.7,2.7,0,0,0,77,19.06l-3.67-3.67a2.71,2.71,0,0,0-3.07-.54L65.53,17l9.79,9.79Z"/><path d="M57.59,10.85,51.77,9.77A4.37,4.37,0,0,0,47.89,11l-8.38,8.38a4.37,4.37,0,0,0-1.21,3.88l1.07,5.82"/><path d="M81.31,34.75l1.07,5.82a4.39,4.39,0,0,1-1.2,3.88l-8.39,8.38A4.33,4.33,0,0,1,68.92,54L63.1,53"/><path d="M58.67,11.91,80.31,33.55,62.1,51.77,40.45,30.12Z"/><path d="M44,52.38l8.4-8.4-5.64-5.63L44,41.11l-5.58,5.58-5.63,5.63h0a1.34,1.34,0,0,0-1.89,0l-3.34,3.34a1.33,1.33,0,0,0-.05,1.83L22.9,60.13a5.69,5.69,0,1,0,7.68,7.69l2.64-4.59a1.35,1.35,0,0,0,1.84,0l3.33-3.34a1.34,1.34,0,0,0,0-1.89h0ZM27.4,66a.3.3,0,0,1,0,.08,2,2,0,0,1-3.27.51,2,2,0,0,1-.57-1.76,2,2,0,0,1,1.08-1.51l.08,0,5.47-3.15.4.41Z"/></g></g></svg>